<?xml version="1.0" encoding="UTF-8"?>
<svg id="logo" xmlns="http://www.w3.org/2000/svg" version="1.1" viewBox="0 0 574.5 352.3">
  <defs>
    <style>
      .cls-1 {
        fill: #001970;
      }

      .cls-1, .cls-2 {
        stroke-width: 0px;
      }

      .cls-2 {
        fill: #f59c00;
      }
    </style>
  </defs>
  <g id="beeld">
    <path class="cls-2" d="M337.5,70.2s2.1-4.2,5.4-4.8c3.5-.6,9.7,2.2,9.7,2.2,0,0-2.5,1.5-4.5,2.8-6.5,4-10.6-.2-10.6-.2"/>
    <path class="cls-2" d="M275.4,95.7s-4.3.5-6.4-1.7c-2.3-2.4-3.3-8.6-3.3-8.6,0,0,2.4,1.1,4.5,2,6.4,3,5.3,8.2,5.3,8.2"/>
    <path class="cls-2" d="M274.4,109.5s-.1,2.9-1.8,4.1c-1.8,1.3-6,1.3-6,1.3,0,0,1-1.5,1.8-2.7,2.6-3.9,6-2.6,6-2.6"/>
    <path class="cls-2" d="M265.2,109.8s-2,2.1-4,1.8c-2.2-.3-5.3-3-5.3-3,0,0,1.7-.5,3.2-.8,4.6-1.2,6.2,2.1,6.2,2.1"/>
    <path class="cls-2" d="M268.8,85.3s-6.1.7-9.1-2.4c-3.2-3.4-4.7-12-4.7-12,0,0,3.4,1.5,6.3,2.9,9.1,4.2,7.4,11.6,7.4,11.6"/>
    <path class="cls-2" d="M248.6,64.6c-2.4-4-2-12.8-2-12.8,0,0,3,2.2,5.5,4.1,8,6,4.9,12.9,4.9,12.9,0,0-6.1-.6-8.4-4.3"/>
    <path class="cls-2" d="M247.7,49.6s-6.1-.6-8.4-4.3c-2.4-4-2-12.8-2-12.8,0,0,3,2.2,5.5,4.1,8,6,4.9,12.9,4.9,12.9"/>
    <path class="cls-2" d="M234.5,45.4s3,2.2,5.5,4.1c8,6,4.9,12.9,4.9,12.9,0,0-6.1-.6-8.4-4.3-2.4-4-2-12.8-2-12.8"/>
    <path class="cls-2" d="M252.3,72.6s-4.6,1.2-7.1-.9c-2.8-2.3-4.7-8.7-4.7-8.7,0,0,2.8.8,5.1,1.6,7.3,2.3,6.8,8.1,6.8,8.1"/>
    <path class="cls-2" d="M239,98.6c-2.2-.8-4.8-4.5-4.8-4.5,0,0,1.9,0,3.5,0,5.1,0,6,3.7,6,3.7,0,0-2.6,1.7-4.7.9"/>
    <path class="cls-2" d="M229.8,92.1c-2.4-1.6-4.4-6.5-4.4-6.5,0,0,2.2.4,4.1.8,5.9,1.3,6,5.9,6,5.9,0,0-3.5,1.2-5.7-.2"/>
    <path class="cls-2" d="M256.4,56.2s-4.6-1-6-4c-1.5-3.3-.4-9.9-.4-9.9,0,0,2.1,2,3.9,3.6,5.6,5.3,2.6,10.3,2.6,10.3"/>
    <path class="cls-2" d="M242.2,34.2c-1.5-3.3-.4-9.9-.4-9.9,0,0,2.1,2,3.9,3.6,5.6,5.3,2.6,10.3,2.6,10.3,0,0-4.6-1-6-4"/>
    <path class="cls-2" d="M251.4,41.7c-1.5-3.3-.4-9.9-.4-9.9,0,0,2.1,2,3.9,3.6,5.6,5.3,2.6,10.3,2.6,10.3,0,0-4.6-1-6-4"/>
    <path class="cls-2" d="M216.8,70.3c-1.5-3.3-.4-9.9-.4-9.9,0,0,2.1,2,3.9,3.6,5.6,5.3,2.6,10.3,2.6,10.3,0,0-4.6-1-6-4"/>
    <path class="cls-2" d="M276.1,55.6s-3.1-3.5-2.5-6.8c.7-3.5,5.5-8.2,5.5-8.2,0,0,.5,2.8,1,5.2,1.4,7.6-4,9.8-4,9.8"/>
    <path class="cls-2" d="M288.6,36c2.8,7.8-2.5,11.2-2.5,11.2,0,0-4-3.2-3.9-6.8.1-3.9,4.4-9.8,4.4-9.8,0,0,1.1,2.9,2,5.4"/>
    <path class="cls-2" d="M280.1,39.6s-4-3.2-3.9-6.8c.1-3.9,4.4-9.8,4.4-9.8,0,0,1.1,2.9,2,5.4,2.8,7.8-2.5,11.2-2.5,11.2"/>
    <path class="cls-2" d="M260.8,40.4s-4-3.2-3.9-6.8c.1-3.9,4.4-9.8,4.4-9.8,0,0,1.1,2.9,2,5.4,2.8,7.8-2.5,11.2-2.5,11.2"/>
    <path class="cls-2" d="M267.3,28.7s-3.6-2.3-3.8-5.2c-.3-3.2,2.7-8.5,2.7-8.5,0,0,1.2,2.3,2.1,4.3,3,6.2-1,9.5-1,9.5"/>
    <path class="cls-2" d="M271.3,17.3s-3.6-2.3-3.8-5.2c-.3-3.2,2.7-8.5,2.7-8.5,0,0,1.2,2.3,2.1,4.3,3,6.2-1,9.5-1,9.5"/>
    <path class="cls-2" d="M254.8,30s-3.6-2.3-3.8-5.2c-.3-3.2,2.7-8.5,2.7-8.5,0,0,1.2,2.3,2.1,4.3,3,6.2-1,9.5-1,9.5"/>
    <path class="cls-2" d="M260.5,21.4s-2.6-1.6-2.8-3.8c-.2-2.3,2-6.2,2-6.2,0,0,.9,1.7,1.5,3.1,2.2,4.5-.8,6.9-.8,6.9"/>
    <path class="cls-2" d="M306.4,64.9c-5.8,5-10.5,1.6-10.5,1.6,0,0,1.4-4.5,4.6-5.6,3.4-1.2,9.9.5,9.9.5,0,0-2.2,1.9-4,3.5"/>
    <path class="cls-2" d="M319.1,96.2c3.6.5,8.5,5.1,8.5,5.1,0,0-2.8.7-5.1,1.2-7.5,1.7-10-3.5-10-3.5,0,0,3.3-3.3,6.6-2.8"/>
    <path class="cls-2" d="M333.6,76.1s3.3-3.3,6.6-2.8c3.6.5,8.5,5.1,8.5,5.1,0,0-2.8.7-5.1,1.2-7.5,1.7-10-3.5-10-3.5"/>
    <path class="cls-2" d="M326.6,94.9c-7.3,2.3-10.2-2.8-10.2-2.8,0,0,3.1-3.6,6.4-3.3,3.6.3,8.8,4.5,8.8,4.5,0,0-2.8.9-5,1.6"/>
    <path class="cls-2" d="M329.6,53.1s1.5-4.5,4.7-5.5c3.4-1.1,9.9.8,9.9.8,0,0-2.2,1.9-4.1,3.4-5.9,4.9-10.5,1.3-10.5,1.3"/>
    <path class="cls-2" d="M300.9,77.5s.5-4.3,3.1-5.9c2.9-1.7,9-1.2,9-1.2,0,0-1.6,2.1-3,3.9-4.4,5.6-9.2,3.2-9.2,3.2"/>
    <path class="cls-2" d="M307.8,67.5s1.4-4.5,4.5-5.6c3.4-1.2,9.9.5,9.9.5,0,0-2.2,1.9-4,3.5-5.8,5-10.5,1.6-10.5,1.6"/>
    <path class="cls-2" d="M336.2,63.6s1.4-4.5,4.5-5.6c3.4-1.2,9.9.5,9.9.5,0,0-2.2,1.9-4,3.5-5.8,5-10.5,1.6-10.5,1.6"/>
    <path class="cls-2" d="M305.6,51.9c3.4-1.2,9.9.5,9.9.5,0,0-2.2,1.9-4,3.5-5.8,5-10.5,1.6-10.5,1.6,0,0,1.4-4.5,4.6-5.6"/>
    <path class="cls-2" d="M327.8,53.3s-2.2,1.9-4,3.5c-5.8,5-10.5,1.6-10.5,1.6,0,0,1.4-4.5,4.6-5.6,3.4-1.2,9.9.5,9.9.5"/>
    <path class="cls-2" d="M318.6,49.9s1.5-5.8,5.4-7.4c4.2-1.7,12.6,0,12.6,0,0,0-2.6,2.6-4.8,4.7-7,6.8-13.1,2.7-13.1,2.7"/>
    <path class="cls-2" d="M302.4,44.1c2.7-2.4,9.3-3.3,9.3-3.3,0,0-1.3,2.6-2.3,4.8-3.4,6.9-9.1,5.5-9.1,5.5,0,0-.4-4.7,2.1-6.9"/>
    <path class="cls-2" d="M304.3,40.9s-1.6-4.4.3-7.2c2-3,8.2-5.5,8.2-5.5,0,0-.6,2.8-1.1,5.2-1.6,7.5-7.4,7.5-7.4,7.5"/>
    <path class="cls-2" d="M312.3,39.9s-.5-5.6,2.4-8.2c3.2-2.9,11.1-3.9,11.1-3.9,0,0-1.5,3.1-2.8,5.7-4.1,8.2-10.8,6.5-10.8,6.5"/>
    <path class="cls-2" d="M311.2,50.1s-.4-4.7,2.1-6.9c2.7-2.4,9.3-3.3,9.3-3.3,0,0-1.3,2.6-2.3,4.8-3.4,6.9-9.1,5.5-9.1,5.5"/>
    <path class="cls-2" d="M324.3,39.4s-.4-4.7,2.1-6.9c2.7-2.4,9.3-3.3,9.3-3.3,0,0-1.3,2.6-2.3,4.8-3.4,6.9-9.1,5.5-9.1,5.5"/>
    <path class="cls-2" d="M285,68.1c3.8,9.2-2.4,13.6-2.4,13.6,0,0-5-3.6-5-7.9,0-4.7,4.7-12,4.7-12,0,0,1.5,3.5,2.7,6.4"/>
    <path class="cls-2" d="M296.6,98.7s1.9-5,5.5-6c3.9-1.1,11.2,1.3,11.2,1.3,0,0-2.6,2-4.7,3.7-6.9,5.3-12,1-12,1"/>
    <path class="cls-2" d="M291.4,70.8c4-2.5,12.7-2.1,12.7-2.1,0,0-2.2,3-4.1,5.6-6,8-12.9,4.9-12.9,4.9,0,0,.5-6.1,4.2-8.4"/>
    <path class="cls-2" d="M325.9,69c4-2.5,12.7-2.1,12.7-2.1,0,0-2.2,3-4.1,5.6-6,8-12.9,4.9-12.9,4.9,0,0,.5-6.1,4.2-8.4"/>
    <path class="cls-2" d="M326.2,57.8c4-2.5,12.7-2.1,12.7-2.1,0,0-2.2,3-4.1,5.6-6,8-12.9,4.9-12.9,4.9,0,0,.5-6.1,4.2-8.4"/>
    <path class="cls-2" d="M300.5,53s-1.4,3.5-2.6,6.4c-3.8,9.3-11.2,8-11.2,8,0,0-1-6,2-9.2,3.2-3.4,11.8-5.2,11.8-5.2"/>
    <path class="cls-2" d="M323.2,80.8s4.9-3.7,9.1-2.4c4.5,1.4,10,8.2,10,8.2,0,0-3.7.4-6.9.6-9.9.9-12.2-6.4-12.2-6.4"/>
    <path class="cls-2" d="M299.7,41.1s0,2.4.1,4.3c.1,6.3-4.5,7.4-4.5,7.4,0,0-2.1-3.2-1.1-5.8,1-2.8,5.5-6,5.5-6"/>
    <path class="cls-2" d="M291.7,39.4c1-2.8,5.5-6,5.5-6,0,0,0,2.4.1,4.3.1,6.3-4.5,7.4-4.5,7.4,0,0-2.1-3.2-1.1-5.8"/>
    <path class="cls-2" d="M300.3,39.2s-2.3-2.5-1.9-4.9c.5-2.6,4-6.1,4-6.1,0,0,.4,2.1.8,3.8,1.1,5.5-2.8,7.2-2.8,7.2"/>
    <path class="cls-2" d="M291.9,35.4s-2.3-2.5-1.9-4.9c.5-2.6,3.9-6.1,3.9-6.1,0,0,.4,2.1.8,3.8,1.1,5.5-2.8,7.2-2.8,7.2"/>
    <path class="cls-2" d="M298.1,28.9s-2.3-2.5-1.9-4.9c.5-2.6,4-6.1,4-6.1,0,0,.4,2.1.8,3.8,1.1,5.5-2.8,7.2-2.8,7.2"/>
    <path class="cls-2" d="M274.6,27.7s-3.5-3.8-2.8-7.4c.7-3.9,5.9-9.2,5.9-9.2,0,0,.7,3.1,1.1,5.7,1.6,8.3-4.2,10.8-4.2,10.8"/>
    <path class="cls-2" d="M271,33.9c-1-2.5,0-7.3,0-7.3,0,0,1.5,1.5,2.7,2.8,3.9,4.1,1.5,7.6,1.5,7.6,0,0-3.3-.9-4.2-3.2"/>
    <path class="cls-2" d="M315.6,28.8s-1.2-3.2,0-5.3c1.4-2.2,5.9-4.2,5.9-4.2,0,0-.4,2.1-.7,3.8-1,5.5-5.3,5.7-5.3,5.7"/>
    <path class="cls-2" d="M285,29.6s-2.3-2.5-1.9-4.9c.5-2.6,4-6.1,4-6.1,0,0,.4,2.1.8,3.8,1.1,5.5-2.8,7.2-2.8,7.2"/>
    <path class="cls-2" d="M282.3,20s-2.3-2.5-1.9-4.9c.5-2.6,4-6.1,4-6.1,0,0,.4,2.1.8,3.8,1.1,5.5-2.8,7.2-2.8,7.2"/>
    <path class="cls-2" d="M290.1,24.7s-2.3-2.5-1.9-4.9c.5-2.6,3.9-6.1,3.9-6.1,0,0,.4,2.1.8,3.8,1.1,5.5-2.8,7.2-2.8,7.2"/>
    <path class="cls-2" d="M306.4,30.2s-3.1-3.4-2.5-6.6c.6-3.5,5.3-8.2,5.3-8.2,0,0,.6,2.8,1,5.1,1.4,7.4-3.8,9.7-3.8,9.7"/>
    <path class="cls-2" d="M247.6,84s-5.9,1.5-9.3-1.3c-3.6-3-6.1-11.4-6.1-11.4,0,0,3.6,1.1,6.6,2.1,9.5,3.1,8.8,10.6,8.8,10.6"/>
    <path class="cls-2" d="M242.9,104.4s-3.6,2-6.2.9c-2.9-1.3-6-6.2-6-6.2,0,0,2.5,0,4.6.1,6.7.2,7.6,5.2,7.6,5.2"/>
    <path class="cls-2" d="M232.5,96.6s-3.6,2-6.2.9c-2.9-1.3-6-6.2-6-6.2,0,0,2.5,0,4.6.1,6.7.2,7.6,5.2,7.6,5.2"/>
    <path class="cls-2" d="M234.7,57.2s-4.6,1.1-7.2-1c-2.8-2.3-4.7-8.8-4.7-8.8,0,0,2.8.9,5.1,1.6,7.3,2.4,6.8,8.2,6.8,8.2"/>
    <path class="cls-2" d="M228.4,83.6s-4.6,1.1-7.2-1c-2.8-2.3-4.7-8.8-4.7-8.8,0,0,2.8.9,5.1,1.6,7.3,2.4,6.8,8.2,6.8,8.2"/>
    <path class="cls-2" d="M225.2,70.5s1.8.9,3.2,1.6c4.6,2.3,3.6,6.2,3.6,6.2,0,0-3.2.3-4.6-1.4-1.6-1.8-2.2-6.3-2.2-6.3"/>
    <path class="cls-2" d="M237.4,44.6s-3.2.3-4.6-1.4c-1.6-1.8-2.2-6.3-2.2-6.3,0,0,1.7.9,3.2,1.6,4.6,2.3,3.6,6.2,3.6,6.2"/>
    <path class="cls-2" d="M232.9,49.9s-3.2.3-4.6-1.4c-1.6-1.8-2.2-6.3-2.2-6.3,0,0,1.8.9,3.2,1.6,4.6,2.4,3.6,6.2,3.6,6.2"/>
    <path class="cls-2" d="M255.4,104.9s-3.4,1.9-6.1.7c-2.9-1.3-6.2-6.2-6.2-6.2,0,0,2.5.1,4.5.2,6.6.4,7.8,5.3,7.8,5.3"/>
    <path class="cls-2" d="M274.5,57.3c5.9,8.1.9,13.8.9,13.8,0,0-5.7-2.3-6.8-6.5-1.2-4.5,1.7-12.8,1.7-12.8,0,0,2.3,3,4.1,5.5"/>
    <path class="cls-2" d="M278.4,61.4s-1-6.1,2-9.2c3.3-3.4,11.8-5.2,11.8-5.2,0,0-1.4,3.5-2.6,6.4-3.8,9.3-11.3,7.9-11.3,7.9"/>
    <path class="cls-2" d="M265.2,46.5c5.9,8.1.9,13.8.9,13.8,0,0-5.7-2.3-6.8-6.5-1.2-4.5,1.7-12.8,1.7-12.8,0,0,2.3,3,4.1,5.5"/>
    <path class="cls-2" d="M264.7,42.8c-.8-4.6,2.7-12.6,2.7-12.6,0,0,2,3.2,3.7,5.8,5.3,8.5-.1,13.8-.1,13.8,0,0-5.5-2.7-6.2-7"/>
    <path class="cls-2" d="M301.3,106.8c-8.1,5.9-13.7.8-13.7.8,0,0,2.3-5.7,6.5-6.7,4.5-1.2,12.8,1.8,12.8,1.8,0,0-3,2.2-5.5,4.1"/>
    <path class="cls-2" d="M308.4,102.8c2.9-.7,8.3,1.2,8.3,1.2,0,0-2,1.5-3.6,2.6-5.2,3.8-8.9.5-8.9.5,0,0,1.5-3.7,4.2-4.4"/>
    <path class="cls-2" d="M286.3,81.9s.1,2.2.2,4.1c.2,5.9-4.1,7-4.1,7,0,0-2-3-1.2-5.4.9-2.6,5.1-5.7,5.1-5.7"/>
    <path class="cls-2" d="M292.2,82c3.6-2.4,11.7-2.2,11.7-2.2,0,0-2,2.9-3.6,5.2-5.3,7.5-11.7,4.8-11.7,4.8,0,0,.4-5.6,3.7-7.8"/>
    <path class="cls-2" d="M357.5,53"/>
    <path class="cls-2" d="M276.2,106.8c0-.7-.2-1.3-.5-1.8-1.4,1.5-3.8,3.6-6.5,3.8-4.7.2-12.1-4.3-12.1-4.3,0,0,3.4-1.6,6.2-2.9,1.6-.7,3.1-1.2,4.5-1.3-1-.8-2.4-1.6-4.1-2.4-.5.9-2,3-4,3.4-2.8.5-7.6-1.6-7.6-1.6,0,0,1.9-1.2,3.5-2.2,1.5-1,2.9-1.3,4.1-1.4-1.2-.5-2.3-1-3.5-1.5-.3.6-1.6,2.7-3.5,3-2.3.4-6.4-1.4-6.4-1.4,0,0,1.6-1,3-1.9,1.3-.8,2.5-1.1,3.5-1.2-1.1-.4-2-.8-2.6-1-.4-.1-.9-.3-1.5-.6.3.4.5.7.5.7,0,0-2.6,2.7-5.2,2.4-2.8-.4-6.8-3.9-6.8-3.9,0,0,2.2-.6,4-1.1.8-.2,1.6-.3,2.2-.3-1.3-.6-2.7-1.2-4-1.7-1,.3-3.5.8-5.3-.3-2.4-1.6-4.4-6.5-4.4-6.5,0,0,2.2.4,4.1.8,4.1.9,5.4,3.3,5.8,4.8,2.3.5,4.7,1.1,5.4,1.4,1.7.7,19.4,7.2,17.9,4.6-.3-.6-1.5-1.7-3.1-3.2-.9.8-2.7,2-4.6,1.8-2.8-.3-6.8-3.9-6.8-3.9,0,0,2.2-.6,4-1.1,1.4-.3,2.5-.4,3.5-.3-.6-.5-1.1-1-1.7-1.5-1.1-.4-2.4-1.1-3.1-2.2-.1-.2-.2-.4-.3-.6-4-3.4-7.7-6.5-8.8-7.7-.7-.8-2.2-2-3.8-3.2-1.7.4-6,1.2-8.8-.8-3.9-2.8-7.1-11.1-7.1-11.1,0,0,3.8.8,6.9,1.6,7.4,1.8,9.3,6.6,9.7,8.9.4.2.7.5,1.1.7,1.5,1,5.5,4.3,10.2,8.4-.2-2,0-3.9,0-3.9,0,0,1.8,1.4,3.3,2.6,3.3,2.6,3.3,5.4,3.1,6.8,8.7,7.7,17.4,15.6,17.4,15.6,0,0,5.4-.8,2.8-6.9-.5-1.3-6.3-13-8.5-17.6-1-.1-6.1-.9-8.2-4.2-2.4-4-2-12.8-2-12.8,0,0,3,2.2,5.5,4.1,7,5.3,5.5,11.2,5,12.6.8,1.1,2.1,2.6,3.4,4.4-.1-3.2,1.4-7.5,1.4-7.5,0,0,1.6,2.1,2.9,3.8,4.1,5.6.7,9.6.7,9.6,0,0-.3-.1-.7-.4,2.7,3.7,5,7.2,5.3,8.3,2.1,8.3,6.7,2.4,9.6.7,2.9-1.7,17.2-10.7,21.1-16.2.2-.3.4-.6.6-.8.2-1.6.6-3.7,2.1-4.9,2.7-2.4,9.4-3.2,9.4-3.2,0,0-1.3,2.6-2.4,4.7-2.4,4.7-5.9,5.5-7.8,5.5l-.7,1c.5,0,1,0,1.4,0,3.6.5,8.5,5.1,8.5,5.1,0,0-2.8.7-5.1,1.2-4.9,1.2-7.7-.8-9-2.2l-3,2.6c1-.4,2.2-.7,3.3-.4,2.6.7,6,4.5,6,4.5,0,0-2.2.3-4,.5-4.7.6-6.5-2.1-7-3.1l-18.1,15.7,2.2,42.8v1.1c-2,.2-4.1.2-6.2.2-3.1,0-5.3-.2-8.3-.5,0,0,2.5-37.8,2.4-40.2"/>
  </g>
  <g id="blauw">
    <rect class="cls-1" x="196.3" y="274.9" width="16.5" height="75.2"/>
    <path class="cls-1" d="M1.7,350.1l29.4-75.1h10.8l27.3,75.1h-17.8l-4.5-12.7h-22.6l-4.8,12.7H1.7ZM31,320.9h10l-4.8-13.3-5.3,13.3Z"/>
    <path class="cls-1" d="M116.8,350h-16.2v-74.7h37.4c9.2.6,22.8,7.1,22.8,23.3s-5.2,16.2-11.2,19.6l16,31.8h-18.2l-14.3-28.6h-16.2v28.6ZM116.8,305.1h21c.7-.1,2.5-.4,4.1-1.3,1.3-.7,2.6-1.9,2.6-5.2s-.9-4.5-3.2-5.8c-1.7-.9-3.6-1.2-4.1-1.2h-20.4v13.5Z"/>
    <path class="cls-1" d="M241.9,350.1l29.4-75.1h10.8l27.3,75.1h-17.8l-4.5-12.7h-22.6l-4.8,12.7h-17.9ZM271.1,320.9h10l-4.8-13.3-5.3,13.3Z"/>
    <path class="cls-1" d="M333.4,350.1l29.4-75.1h10.8l27.3,75.1h-17.8l-4.5-12.7h-22.6l-4.8,12.7h-17.9ZM362.6,320.9h10l-4.8-13.3-5.3,13.3Z"/>
    <polygon class="cls-1" points="444.9 350 428.3 350 428.3 275.2 442.1 275.2 473.2 316.6 473.2 275.2 489.8 275.2 489.8 350 477.4 350 444.9 306.8 444.9 350"/>
    <path class="cls-1" d="M571.7,330c-.6,6.5-4.9,12.4-11.4,16-4.9,2.7-10.5,4-16.5,4s-2.6-.1-3.8-.2c-10.5-1-19.7-6-24.4-13.2l13.6-9c1.6,2.6,6,5.4,12.2,6,4.1.4,8.2-.3,11-1.9,1.8-.9,3-2.2,3.1-3.3,0-1.5-.4-6.5-12.7-7.7-17.6-1.7-28.5-12-27.3-25.4.6-6.7,4.9-12.5,11.5-16.2,5.8-3,13-4.4,20.3-3.7,10.4,1,19.6,6,24.4,13.2l-13.6,8.9c-1.6-2.5-6-5.2-12.3-5.8-4.1-.4-8.2.3-11,1.8-1.7,1-2.9,2.3-3,3.3-.5,5.1,8.1,7.3,12.6,7.7h0c17.9,1.8,28.5,11.8,27.3,25.5"/>
    <polygon class="cls-1" points="38.3 251.5 38.3 176.8 54.8 176.8 54.8 234.8 91.3 234.8 91.3 251.5 38.3 251.5"/>
    <path class="cls-1" d="M113.4,251.6l29.5-75.2h10.9l27.3,75.2h-17.8l-4.5-12.7h-22.6l-4.8,12.7h-17.9ZM142.7,222.3h10.1l-4.8-13.3-5.3,13.3Z"/>
    <path class="cls-1" d="M259.2,231.5c-.6,6.5-4.9,12.4-11.5,16-4.9,2.7-10.6,4-16.5,4s-2.6-.1-3.8-.2c-10.6-1-19.7-6-24.4-13.2l13.6-9c1.6,2.6,6,5.4,12.3,6,4.1.4,8.2-.3,11.1-1.9,1.8-.9,3-2.2,3.1-3.3.1-1.5-.4-6.5-12.8-7.7-17.6-1.7-28.6-12-27.3-25.5.6-6.7,4.9-12.5,11.6-16.2,5.8-3,13-4.4,20.3-3.7,10.5,1,19.6,6,24.4,13.2l-13.6,8.9c-1.6-2.5-6-5.2-12.3-5.8-4.1-.4-8.2.3-11.1,1.8-1.7,1-2.9,2.3-3,3.3-.5,5.1,8.1,7.3,12.7,7.7,17.9,1.7,28.6,11.7,27.3,25.5"/>
    <path class="cls-1" d="M339.8,231.5c-.6,6.5-4.9,12.4-11.5,16-4.9,2.7-10.6,4-16.5,4s-2.6-.1-3.8-.2c-10.6-1-19.7-6-24.4-13.2l13.6-9c1.6,2.6,6,5.4,12.3,6,4.1.4,8.2-.3,11.1-1.9,1.8-.9,3-2.2,3.1-3.3.1-1.5-.4-6.5-12.7-7.7-17.6-1.7-28.6-12-27.3-25.5.6-6.7,4.9-12.5,11.6-16.2,5.8-3,13-4.4,20.3-3.7,10.5,1,19.6,6,24.4,13.2l-13.6,8.9c-1.6-2.5-6-5.2-12.4-5.8-4.1-.4-8.2.3-11.1,1.8-1.7,1-2.9,2.3-3,3.3-.5,5.1,8.1,7.3,12.7,7.7,17.9,1.7,28.6,11.7,27.3,25.5"/>
    <path class="cls-1" d="M363.1,214.1c0-20.9,16.8-37.7,37.4-37.7s37.6,16.8,37.6,37.7-16.7,37.5-37.6,37.5-37.4-16.9-37.4-37.5M379.4,214.1c0,11.6,9.5,21.1,21,21.1s21.2-9.5,21.2-21.1-9.5-21.3-21.2-21.3-21,9.5-21,21.3"/>
    <path class="cls-1" d="M460.3,214.1c0-20.9,16.8-37.7,37.4-37.7s37.6,16.8,37.6,37.7-16.7,37.5-37.6,37.5-37.4-16.9-37.4-37.5M476.7,214.1c0,11.6,9.5,21.1,21,21.1s21.2-9.5,21.2-21.1-9.5-21.3-21.2-21.3-21,9.5-21,21.3"/>
  </g>
</svg>